ffmpeg version 8.1.1-full_build-www.gyan.dev Copyright (c) 2000-2026 the FFmpeg developers
  built with gcc 15.2.0 (Rev13, Built by MSYS2 project)
  configuration: --enable-gpl --enable-version3 --enable-static --disable-w32threads --disable-autodetect --enable-cairo --enable-fontconfig --enable-iconv --enable-gnutls --enable-lcms2 --enable-libxml2 --enable-gmp --enable-bzlib --enable-lzma --enable-libsnappy --enable-zlib --enable-librist --enable-libsrt --enable-libssh --enable-libzmq --enable-avisynth --enable-libbluray --enable-libcaca --enable-libdvdnav --enable-libdvdread --enable-sdl2 --enable-libaribb24 --enable-libaribcaption --enable-libdav1d --enable-libdavs2 --enable-libopenjpeg --enable-libquirc --enable-libuavs3d --enable-libxevd --enable-libzvbi --enable-liboapv --enable-libqrencode --enable-librav1e --enable-libsvtav1 --enable-libvvenc --enable-libwebp --enable-libx264 --enable-libx265 --enable-libxavs2 --enable-libxeve --enable-libxvid --enable-libaom --enable-libjxl --enable-libsvtjpegxs --enable-libvpx --enable-mediafoundation --enable-libass --enable-frei0r --enable-libfreetype --enable-libfribidi --enable-libharfbuzz --enable-liblensfun --enable-libvidstab --enable-libvmaf --enable-libzimg --enable-amf --enable-cuda-llvm --enable-cuvid --enable-dxva2 --enable-d3d11va --enable-d3d12va --enable-ffnvcodec --enable-libvpl --enable-nvdec --enable-nvenc --enable-vaapi --enable-libshaderc --enable-vulkan --enable-libplacebo --enable-opencl --enable-libcdio --enable-openal --enable-libgme --enable-libmodplug --enable-libopenmpt --enable-libopencore-amrwb --enable-libmp3lame --enable-libshine --enable-libtheora --enable-libtwolame --enable-libvo-amrwbenc --enable-libcodec2 --enable-libilbc --enable-libgsm --enable-liblc3 --enable-libopencore-amrnb --enable-libopus --enable-libspeex --enable-libvorbis --enable-ladspa --enable-libbs2b --enable-libflite --enable-libmysofa --enable-librubberband --enable-libsoxr --enable-chromaprint --enable-whisper
  libavutil      60. 26.101 / 60. 26.101
  libavcodec     62. 28.101 / 62. 28.101
  libavformat    62. 12.101 / 62. 12.101
  libavdevice    62.  3.101 / 62.  3.101
  libavfilter    11. 14.101 / 11. 14.101
  libswscale      9.  5.101 /  9.  5.101
  libswresample   6.  3.101 /  6.  3.101
Input #0, png_pipe, from 'C:\Users\LENOVO\Desktop\castle\docs\exports\media\youtube\morning_premiere_slide_2026-05-29.png':
  Duration: N/A, bitrate: N/A
  Stream #0:0: Video: png, rgba(pc, gbr/unknown/unknown), 1280x720, 1 fps, 1 tbr, 1 tbn
Stream mapping:
  Stream #0:0 -> #0:0 (png (native) -> h264 (libx264))
Press [q] to stop, [?] for help
[libx264 @ 00000154b1e6a2c0] using cpu capabilities: MMX2 SSE2Fast SSSE3 SSE4.2 AVX FMA3 BMI2 AVX2
[libx264 @ 00000154b1e6a2c0] profile Constrained Baseline, level 3.1, 4:2:0, 8-bit
[libx264 @ 00000154b1e6a2c0] 264 - core 165 r3223 0480cb0 - H.264/MPEG-4 AVC codec - Copyleft 2003-2025 - http://www.videolan.org/x264.html - options: cabac=0 ref=1 deblock=0:-3:-3 analyse=0:0 me=dia subme=0 psy=1 psy_rd=2.00:0.70 mixed_ref=0 me_range=16 chroma_me=1 trellis=0 8x8dct=0 cqm=0 deadzone=21,11 fast_pskip=1 chroma_qp_offset=0 threads=6 lookahead_threads=1 sliced_threads=0 nr=0 decimate=1 interlaced=0 bluray_compat=0 constrained_intra=0 bframes=0 weightp=0 keyint=250 keyint_min=1 scenecut=0 intra_refresh=0 rc=crf mbtree=0 crf=23.0 qcomp=0.60 qpmin=0 qpmax=69 qpstep=4 ip_ratio=1.40 aq=0
Output #0, mp4, to 'C:\Users\LENOVO\Desktop\castle\docs\exports\media\youtube\morning_premiere_2026-05-29.mp4':
  Metadata:
    encoder         : Lavf62.12.101
  Stream #0:0: Video: h264 (avc1 / 0x31637661), yuv420p(tv, progressive), 1280x720, q=2-31, 1 fps, 16384 tbn
    Metadata:
      encoder         : Lavc62.28.101 libx264
    Side data:
      CPB properties: bitrate max/min/avg: 0/0/0 buffer size: 0 vbv_delay: N/A
x264 [error]: malloc of size 2932224 failed
[vf#0:0 @ 00000154b1e9a280] Error while filtering: Cannot allocate memory
[vost#0:0/libx264 @ 00000154b1e69f80] [enc:libx264 @ 00000154b1e1cbc0] Error submitting video frame to the encoder
[vost#0:0/libx264 @ 00000154b1e69f80] [enc:libx264 @ 00000154b1e1cbc0] Error encoding a frame: Generic error in an external library
[vf#0:0 @ 00000154b1e9a280] Task finished with error code: -12 (Cannot allocate memory)
[vost#0:0/libx264 @ 00000154b1e69f80] Task finished with error code: -542398533 (Generic error in an external library)
[vf#0:0 @ 00000154b1e9a280] Terminating thread with return code -12 (Cannot allocate memory)
[vost#0:0/libx264 @ 00000154b1e69f80] Terminating thread with return code -542398533 (Generic error in an external library)
[mp4 @ 00000154b1e71380] Starting second pass: moving the moov atom to the beginning of the file
[out#0/mp4 @ 00000154b1e544c0] video:0KiB audio:0KiB subtitle:0KiB other streams:0KiB global headers:0KiB muxing overhead: unknown
[out#0/mp4 @ 00000154b1e544c0] Output file is empty, nothing was encoded(check -ss / -t / -frames parameters if used)
frame=    0 fps=0.0 q=0.0 Lsize=       0KiB time=N/A bitrate=N/A speed=N/A elapsed=0:00:00.16    
Conversion failed!
